<svg width="36" height="36" viewBox="0 0 36 36" fill="none" xmlns="http://www.w3.org/2000/svg">
    <path d="M18 36C27.9411 36 36 27.9411 36 18C36 8.05888 27.9411 0 18 0C8.05888 0 0 8.05888 0 18C0 27.9411 8.05888 36 18 36Z" fill="#EDEEF5"/>
    <path fill-rule="evenodd" clip-rule="evenodd" d="M26.1006 25.1277L19.3501 18.3254L26.1006 11.5232C26.4733 11.1477 26.4733 10.5382 26.1006 10.1627C25.728 9.78722 25.1232 9.78722 24.7505 10.1627L18 16.965L11.2495 10.1627C10.8768 9.78722 10.272 9.78722 9.89937 10.1627C9.52674 10.5382 9.52674 11.1477 9.89937 11.5232L16.6499 18.3254L9.89937 25.1277C9.52674 25.5032 9.52674 26.1126 9.89937 26.4881C10.272 26.8636 10.8768 26.8636 11.2495 26.4881L18 19.6859L24.7505 26.4881C25.1232 26.8636 25.728 26.8636 26.1006 26.4881C26.4733 26.1126 26.4733 25.5032 26.1006 25.1277Z" fill="#8586A6"/>
</svg>
