<svg width="16" height="18" viewBox="0 0 16 18" fill="none" xmlns="http://www.w3.org/2000/svg">
    <path fill-rule="evenodd" clip-rule="evenodd" d="M2.25 0C1.65326 0 1.08097 0.237053 0.65901 0.65901C0.237053 1.08097 0 1.65326 0 2.25L0 15.75C0 16.3467 0.237053 16.919 0.65901 17.341C1.08097 17.7629 1.65326 18 2.25 18H13.179C13.7757 18 14.348 17.7629 14.77 17.341C15.1919 16.919 15.429 16.3467 15.429 15.75V2.25C15.429 1.65326 15.1919 1.08097 14.77 0.65901C14.348 0.237053 13.7757 0 13.179 0L2.25 0ZM4.179 5.143C3.9232 5.143 3.67787 5.24462 3.497 5.4255C3.31612 5.60637 3.2145 5.8517 3.2145 6.1075C3.2145 6.3633 3.31612 6.60863 3.497 6.7895C3.67787 6.97038 3.9232 7.072 4.179 7.072H11.25C11.5058 7.072 11.7511 6.97038 11.932 6.7895C12.1129 6.60863 12.2145 6.3633 12.2145 6.1075C12.2145 5.8517 12.1129 5.60637 11.932 5.4255C11.7511 5.24462 11.5058 5.143 11.25 5.143H4.179ZM3.214 9.321C3.214 8.789 3.646 8.357 4.179 8.357H11.25C11.5058 8.357 11.7511 8.45862 11.932 8.6395C12.1129 8.82037 12.2145 9.0657 12.2145 9.3215C12.2145 9.5773 12.1129 9.82263 11.932 10.0035C11.7511 10.1844 11.5058 10.286 11.25 10.286H4.179C4.05224 10.2861 3.92669 10.2613 3.80955 10.2128C3.69242 10.1644 3.58598 10.0933 3.49635 10.0037C3.40671 9.91402 3.33564 9.80758 3.28719 9.69044C3.23874 9.57331 3.21387 9.44776 3.214 9.321ZM4.179 11.571C4.05241 11.571 3.92705 11.5959 3.81009 11.6444C3.69314 11.6928 3.58686 11.7638 3.49735 11.8533C3.40783 11.9429 3.33683 12.0491 3.28838 12.1661C3.23993 12.2831 3.215 12.4084 3.215 12.535C3.215 12.6616 3.23993 12.7869 3.28838 12.9039C3.33683 13.0209 3.40783 13.1271 3.49735 13.2167C3.58686 13.3062 3.69314 13.3772 3.81009 13.4256C3.92705 13.4741 4.05241 13.499 4.179 13.499H11.25C11.5057 13.499 11.7509 13.3974 11.9317 13.2167C12.1124 13.0359 12.214 12.7907 12.214 12.535C12.214 12.2793 12.1124 12.0341 11.9317 11.8533C11.7509 11.6726 11.5057 11.571 11.25 11.571H4.179Z" fill="#DADBE3"/>
</svg>
