<svg width="10" height="6" viewBox="0 0 10 6" fill="none" xmlns="http://www.w3.org/2000/svg">
    <path d="M0.902596 1.6101L0.90257 1.61013L0.905758 1.6131L4.66376 5.1211L4.66375 5.12111L4.66503 5.12228C4.75752 5.20743 4.87864 5.25469 5.00435 5.25469C5.13006 5.25469 5.25118 5.20743 5.34367 5.12228L5.34368 5.12229L5.34501 5.12104L9.09501 1.61804L9.09577 1.61732C9.1444 1.57152 9.18339 1.51647 9.21047 1.4554C9.23755 1.39433 9.25216 1.32847 9.25346 1.26169C9.25476 1.19489 9.24271 1.12851 9.21803 1.06644C9.19335 1.00437 9.15653 0.947845 9.10972 0.900182L9.10973 0.900169L9.10764 0.898093C9.01591 0.806862 8.89234 0.754824 8.76297 0.752954C8.63361 0.751085 8.50858 0.79953 8.41426 0.888072L8.41417 0.887982L8.41062 0.891531L5.00438 4.07228L1.5963 0.888868C1.50108 0.79774 1.37372 0.747837 1.24187 0.750072C1.10919 0.752321 0.982835 0.807185 0.890605 0.902596C0.798374 0.998007 0.747823 1.12615 0.750072 1.25883C0.752321 1.39151 0.807185 1.51787 0.902596 1.6101Z" fill="#C8CEED" stroke="#C8CEED" stroke-width="0.5"/>
</svg>
