<svg width="24" height="24" viewBox="0 0 24 24" fill="none" xmlns="http://www.w3.org/2000/svg">
    <rect x="2.5" y="0.5" width="19" height="23" rx="2.32667" fill="white" stroke="#C8CEED"/>
    <path d="M5.84619 8.02981C5.84619 7.32946 6.43659 6.76172 7.16487 6.76172H16.8352C17.5635 6.76172 18.1539 7.32946 18.1539 8.02981C18.1539 8.73016 17.5635 9.2979 16.8352 9.2979H7.16487C6.43659 9.2979 5.84619 8.73016 5.84619 8.02981Z" fill="#0099FF"/>
    <path d="M5.84619 12.2564C5.84619 11.556 6.43659 10.9883 7.16487 10.9883H16.8352C17.5635 10.9883 18.1539 11.556 18.1539 12.2564C18.1539 12.9567 17.5635 13.5245 16.8352 13.5245H7.16487C6.43659 13.5245 5.84619 12.9567 5.84619 12.2564Z" fill="#FF6100"/>
    <path d="M5.84619 16.4829C5.84619 15.7826 6.43659 15.2148 7.16487 15.2148H16.8352C17.5635 15.2148 18.1539 15.7826 18.1539 16.4829C18.1539 17.1833 17.5635 17.751 16.8352 17.751H7.16487C6.43659 17.751 5.84619 17.1833 5.84619 16.4829Z" fill="#FFB629"/>
</svg>
