<svg width="20" height="20" viewBox="0 0 20 20" fill="none" xmlns="http://www.w3.org/2000/svg">
    <path fill-rule="evenodd" clip-rule="evenodd" d="M11.4772 12.976C11.1879 12.6682 10.8983 12.3477 10.5915 12.0447C10.5386 11.9925 10.4091 11.9915 10.321 12.0054C8.51728 12.2889 7.01988 10.8348 7.25621 9.02719C7.26718 8.94385 7.28524 8.82404 7.24086 8.77694C6.93441 8.45231 6.61239 8.14245 6.28564 7.81829C5.5279 9.21583 5.91155 11.123 7.13261 12.2654C8.57619 13.6161 10.5746 13.5058 11.4772 12.976ZM15.4717 14.967C15.156 15.3004 14.874 15.5983 14.5715 15.9179C14.1044 15.4614 13.6183 15.0309 13.188 14.5504C12.8998 14.2286 12.645 14.1845 12.2279 14.303C8.20494 15.4461 4.00547 13.6371 2.16054 10.0163C1.95125 9.60562 1.94157 9.27769 2.16114 8.87173C2.69623 7.88192 3.35953 7.00354 4.21678 6.27343C4.29079 6.21052 4.36351 6.14606 4.44153 6.07819C4.0593 5.69076 3.68486 5.31101 3.34171 4.96301C3.66196 4.62411 3.94952 4.3199 4.25184 4C8.00485 7.66838 11.7518 11.331 15.4717 14.967Z" fill="white"/>
    <path fill-rule="evenodd" clip-rule="evenodd" d="M6.9306 4.73248C7.9393 4.38767 8.94505 4.22914 9.97452 4.25369C12.2467 4.30775 14.2382 5.08142 15.9081 6.63584C16.6935 7.36702 17.3163 8.22332 17.7398 9.21265C17.7961 9.34439 17.796 9.54271 17.7388 9.67386C17.2144 10.8765 16.4199 11.8749 15.4042 12.7035C15.2506 12.829 15.1565 12.8336 15.0141 12.6898C14.5577 12.2287 14.0906 11.7782 13.6213 11.3303C13.5087 11.2228 13.4741 11.1375 13.5381 10.977C14.1631 9.40684 13.9314 7.96362 12.7445 6.76062C11.5318 5.53141 10.0508 5.25908 8.4273 5.8277C8.18601 5.91223 8.04165 5.90231 7.87119 5.70872C7.5808 5.37878 7.26219 5.07363 6.9306 4.73248Z" fill="white"/>
    <path fill-rule="evenodd" clip-rule="evenodd" d="M9.1463 6.94729C10.2534 6.70235 11.1339 6.9624 11.8553 7.71671C12.4726 8.36207 12.7064 9.40925 12.3999 10.1276C11.3251 9.07695 10.2625 8.03838 9.1463 6.94729Z" fill="white"/>
</svg>
