<svg width="38" height="38" viewBox="0 0 38 38" fill="none" xmlns="http://www.w3.org/2000/svg">
    <path d="M13.3323 31.9744C13.888 32.5132 13.4953 33.4363 12.7061 33.4363H7.7673C6.79288 33.4363 6 32.6677 6 31.723V26.9352C6 26.1702 6.95219 25.7895 7.50795 26.3282L13.3323 31.9744Z" fill="#0A1551"/>
    <path d="M21.0525 32.3468C19.5906 30.8944 19.5906 28.5396 21.0525 27.0872L26.3285 21.8456C27.7904 20.3933 30.1606 20.3933 31.6225 21.8456C33.0844 23.298 33.0844 25.6528 31.6225 27.1052L26.3465 32.3468C24.8846 33.7992 22.5144 33.7992 21.0525 32.3468Z" fill="#FFB629"/>
    <path d="M7.11462 19.1761C5.65271 17.7237 5.65271 15.369 7.11462 13.9166L15.9936 5.08928C17.4555 3.63691 19.8257 3.6369 21.2876 5.08928C22.7495 6.54166 22.7495 8.89643 21.2876 10.3488L12.4086 19.1761C10.9467 20.6285 8.57652 20.6285 7.11462 19.1761Z" fill="#0099FF"/>
    <path d="M14.3728 25.4676C12.9109 24.0152 12.9109 21.6604 14.3728 20.208L26.3699 8.28911C27.8318 6.83674 30.202 6.83673 31.6639 8.28911C33.1258 9.74149 33.1258 12.0963 31.6639 13.5486L19.6668 25.4676C18.2049 26.9199 15.8347 26.9199 14.3728 25.4676Z" fill="#FF6100"/>
</svg>
