<svg width="20" height="20" viewBox="0 0 20 20" fill="none" xmlns="http://www.w3.org/2000/svg">
    <path d="M17.9448 9.83867C17.8069 9.65904 14.5001 5.42859 10 5.42859C5.49986 5.42859 2.1931 9.65904 2.05517 9.83867C1.98161 9.93428 1.98161 10.0658 2.05517 10.1614C2.1931 10.3418 5.50014 14.5714 10 14.5714C14.4999 14.5714 17.8069 10.3415 17.9448 10.1614C18.0184 10.0658 18.0184 9.93428 17.9448 9.83867ZM10 12.6891C8.47646 12.6891 7.24138 11.4852 7.24138 10C7.24138 8.51488 8.47646 7.31094 10 7.31094C11.5235 7.31094 12.7586 8.51488 12.7586 10C12.7569 11.4845 11.5229 12.6875 10 12.6891Z" fill="white"/>
</svg>
