<svg width="237" height="167" viewBox="0 0 237 167" fill="none" xmlns="http://www.w3.org/2000/svg">
    <g clip-path="url(#clip0_19_2)">
        <rect width="237" height="166.35" rx="1.28455" fill="white"/>
        <rect x="16.0571" y="47.5284" width="18.3049" height="7.38618" rx="1.26064" fill="#C8CEED"/>
        <rect x="16.0571" y="58.7683" width="98.3298" height="12.6064" rx="1.26064" fill="#F3F3FE"/>
        <rect x="122.094" y="58.7683" width="98.6449" height="12.6064" rx="1.26064" fill="#F3F3FE"/>
        <rect x="16.0571" y="79.6422" width="18.3049" height="7.38618" rx="1.26064" fill="#C8CEED"/>
        <rect x="16.0571" y="90.8821" width="204.565" height="12.5244" rx="1.26064" fill="#F3F3FE"/>
        <rect x="16.0571" y="113.683" width="18.3049" height="7.38618" rx="1.26064" fill="#C8CEED"/>
        <rect x="16.0571" y="124.923" width="204.565" height="12.5244" rx="1.26064" fill="#F3F3FE"/>
        <rect x="16.0571" y="141.301" width="204.565" height="12.5244" rx="1.26064" fill="#F3F3FE"/>
        <path d="M23.39 18.7464H22.0506C22.0124 18.5268 21.9419 18.3322 21.8393 18.1627C21.7366 17.9908 21.6089 17.8451 21.4561 17.7257C21.3032 17.6064 21.129 17.5168 20.9332 17.4571C20.7398 17.3951 20.5309 17.364 20.3064 17.364C19.9077 17.364 19.5543 17.4643 19.2464 17.6648C18.9384 17.863 18.6972 18.1543 18.5229 18.5387C18.3486 18.9207 18.2615 19.3875 18.2615 19.939C18.2615 20.5001 18.3486 20.9728 18.5229 21.3572C18.6996 21.7392 18.9407 22.0281 19.2464 22.2239C19.5543 22.4173 19.9065 22.514 20.3029 22.514C20.5225 22.514 20.7278 22.4854 20.9188 22.4281C21.1122 22.3684 21.2853 22.2812 21.4381 22.1666C21.5933 22.052 21.7235 21.9111 21.8285 21.744C21.936 21.5769 22.01 21.3859 22.0506 21.171L23.39 21.1782C23.3398 21.5267 23.2312 21.8538 23.0641 22.1595C22.8993 22.4651 22.6833 22.7349 22.4159 22.9688C22.1484 23.2004 21.8357 23.3819 21.4775 23.5132C21.1194 23.6421 20.7219 23.7066 20.2849 23.7066C19.6403 23.7066 19.0649 23.5574 18.5587 23.2589C18.0526 22.9605 17.6538 22.5295 17.3626 21.9661C17.0713 21.4026 16.9256 20.7269 16.9256 19.939C16.9256 19.1487 17.0725 18.473 17.3661 17.912C17.6598 17.3485 18.0597 16.9175 18.5659 16.6191C19.0721 16.3206 19.6451 16.1714 20.2849 16.1714C20.6932 16.1714 21.0728 16.2287 21.4238 16.3433C21.7748 16.4579 22.0876 16.6263 22.3621 16.8483C22.6367 17.068 22.8623 17.3378 23.039 17.6577C23.2181 17.9752 23.3351 18.3381 23.39 18.7464ZM26.949 23.7138C26.4118 23.7138 25.9462 23.5956 25.5522 23.3592C25.1583 23.1228 24.8527 22.7922 24.6354 22.3672C24.4205 21.9422 24.3131 21.4456 24.3131 20.8773C24.3131 20.3091 24.4205 19.8113 24.6354 19.3839C24.8527 18.9565 25.1583 18.6247 25.5522 18.3883C25.9462 18.1519 26.4118 18.0337 26.949 18.0337C27.4862 18.0337 27.9517 18.1519 28.3457 18.3883C28.7396 18.6247 29.0441 18.9565 29.2589 19.3839C29.4762 19.8113 29.5848 20.3091 29.5848 20.8773C29.5848 21.4456 29.4762 21.9422 29.2589 22.3672C29.0441 22.7922 28.7396 23.1228 28.3457 23.3592C27.9517 23.5956 27.4862 23.7138 26.949 23.7138ZM26.9561 22.6752C27.2474 22.6752 27.4909 22.5952 27.6867 22.4352C27.8825 22.2729 28.0281 22.0556 28.1236 21.7834C28.2215 21.5112 28.2705 21.208 28.2705 20.8737C28.2705 20.5371 28.2215 20.2327 28.1236 19.9605C28.0281 19.6859 27.8825 19.4675 27.6867 19.3051C27.4909 19.1428 27.2474 19.0616 26.9561 19.0616C26.6577 19.0616 26.4094 19.1428 26.2112 19.3051C26.0154 19.4675 25.8686 19.6859 25.7707 19.9605C25.6752 20.2327 25.6274 20.5371 25.6274 20.8737C25.6274 21.208 25.6752 21.5112 25.7707 21.7834C25.8686 22.0556 26.0154 22.2729 26.2112 22.4352C26.4094 22.5952 26.6577 22.6752 26.9561 22.6752ZM31.9817 20.3831V23.6063H30.6852V18.1054H31.9244V19.0401H31.9888C32.1154 18.7321 32.3171 18.4874 32.5941 18.3059C32.8734 18.1245 33.2184 18.0337 33.6291 18.0337C34.0087 18.0337 34.3394 18.1149 34.6211 18.2773C34.9052 18.4396 35.1249 18.6748 35.2801 18.9828C35.4377 19.2908 35.5153 19.6644 35.5129 20.1038V23.6063H34.2164V20.3043C34.2164 19.9366 34.1209 19.6489 33.9299 19.4412C33.7413 19.2335 33.4799 19.1296 33.1456 19.1296C32.9188 19.1296 32.717 19.1798 32.5404 19.28C32.3661 19.3779 32.2288 19.52 32.1285 19.7062C32.0306 19.8925 31.9817 20.1181 31.9817 20.3831ZM39.5777 18.1054V19.1081H36.4154V18.1054H39.5777ZM37.1961 16.7874H38.4926V21.9517C38.4926 22.126 38.5188 22.2597 38.5714 22.3528C38.6263 22.4436 38.6979 22.5057 38.7862 22.5391C38.8746 22.5725 38.9725 22.5892 39.0799 22.5892C39.1611 22.5892 39.2351 22.5832 39.302 22.5713C39.3712 22.5594 39.4237 22.5486 39.4595 22.5391L39.678 23.5526C39.6088 23.5765 39.5097 23.6027 39.3808 23.6314C39.2542 23.66 39.099 23.6768 38.9152 23.6815C38.5905 23.6911 38.298 23.6421 38.0377 23.5347C37.7775 23.4249 37.571 23.2554 37.4182 23.0261C37.2677 22.7969 37.1937 22.5104 37.1961 22.1666V16.7874ZM42.2449 23.7173C41.8964 23.7173 41.5824 23.6553 41.303 23.5311C41.0261 23.4046 40.8064 23.2183 40.6441 22.9724C40.4841 22.7265 40.4041 22.4233 40.4041 22.0628C40.4041 21.7524 40.4614 21.4957 40.576 21.2928C40.6906 21.0898 40.847 20.9275 41.0452 20.8057C41.2434 20.6839 41.4666 20.592 41.7149 20.5299C41.9656 20.4655 42.2246 20.4189 42.4921 20.3903C42.8144 20.3568 43.0758 20.327 43.2764 20.3007C43.4769 20.2721 43.6226 20.2291 43.7133 20.1718C43.8064 20.1121 43.853 20.0202 43.853 19.896V19.8745C43.853 19.6048 43.773 19.3958 43.613 19.2478C43.4531 19.0998 43.2227 19.0258 42.9218 19.0258C42.6043 19.0258 42.3524 19.095 42.1662 19.2335C41.9823 19.372 41.8582 19.5355 41.7937 19.7241L40.5832 19.5522C40.6787 19.218 40.8363 18.9386 41.0559 18.7142C41.2756 18.4874 41.5442 18.3179 41.8617 18.2056C42.1793 18.091 42.5303 18.0337 42.9147 18.0337C43.1797 18.0337 43.4435 18.0648 43.7061 18.1268C43.9688 18.1889 44.2087 18.2916 44.426 18.4348C44.6433 18.5757 44.8176 18.7679 44.9489 19.0114C45.0826 19.255 45.1494 19.5594 45.1494 19.9247V23.6063H43.9031V22.8507H43.8601C43.7813 23.0035 43.6703 23.1467 43.5271 23.2804C43.3862 23.4117 43.2083 23.518 42.9934 23.5992C42.781 23.678 42.5314 23.7173 42.2449 23.7173ZM42.5816 22.7647C42.8418 22.7647 43.0675 22.7134 43.2585 22.6107C43.4495 22.5057 43.5963 22.3672 43.699 22.1953C43.804 22.0234 43.8566 21.8359 43.8566 21.633V20.9848C43.816 21.0182 43.7467 21.0492 43.6488 21.0779C43.5533 21.1065 43.4459 21.1316 43.3265 21.1531C43.2071 21.1746 43.0889 21.1937 42.972 21.2104C42.855 21.2271 42.7535 21.2414 42.6675 21.2534C42.4741 21.2796 42.301 21.3226 42.1482 21.3823C41.9954 21.442 41.8749 21.5256 41.7865 21.633C41.6982 21.738 41.654 21.8741 41.654 22.0413C41.654 22.28 41.7412 22.4603 41.9155 22.5821C42.0897 22.7038 42.3118 22.7647 42.5816 22.7647ZM48.8525 23.7138C48.3034 23.7138 47.8319 23.5932 47.4379 23.352C47.0463 23.1109 46.7443 22.7778 46.5318 22.3528C46.3217 21.9255 46.2167 21.4336 46.2167 20.8773C46.2167 20.3186 46.3241 19.8256 46.539 19.3982C46.7539 18.9685 47.0571 18.6342 47.4487 18.3954C47.8426 18.1543 48.3082 18.0337 48.8454 18.0337C49.2919 18.0337 49.687 18.1161 50.0308 18.2808C50.377 18.4432 50.6528 18.6736 50.8581 18.972C51.0634 19.2681 51.1804 19.6143 51.2091 20.0106H49.9699C49.9198 19.7456 49.8004 19.5248 49.6118 19.3481C49.4256 19.169 49.1761 19.0795 48.8633 19.0795C48.5983 19.0795 48.3655 19.1511 48.1649 19.2944C47.9644 19.4352 47.808 19.6382 47.6958 19.9032C47.5859 20.1682 47.531 20.4858 47.531 20.8558C47.531 21.2307 47.5859 21.553 47.6958 21.8228C47.8056 22.0902 47.9596 22.2967 48.1578 22.4424C48.3583 22.5856 48.5935 22.6573 48.8633 22.6573C49.0543 22.6573 49.225 22.6214 49.3754 22.5498C49.5282 22.4758 49.656 22.3696 49.7586 22.2311C49.8613 22.0926 49.9317 21.9243 49.9699 21.7261H51.2091C51.178 22.1153 51.0634 22.4603 50.8653 22.7611C50.6671 23.0596 50.3973 23.2936 50.0559 23.4631C49.7145 23.6302 49.3133 23.7138 48.8525 23.7138ZM55.0205 18.1054V19.1081H51.8582V18.1054H55.0205ZM52.6389 16.7874H53.9354V21.9517C53.9354 22.126 53.9617 22.2597 54.0142 22.3528C54.0691 22.4436 54.1407 22.5057 54.2291 22.5391C54.3174 22.5725 54.4153 22.5892 54.5227 22.5892C54.6039 22.5892 54.6779 22.5832 54.7448 22.5713C54.814 22.5594 54.8665 22.5486 54.9024 22.5391L55.1208 23.5526C55.0516 23.5765 54.9525 23.6027 54.8236 23.6314C54.697 23.66 54.5418 23.6768 54.358 23.6815C54.0333 23.6911 53.7408 23.6421 53.4806 23.5347C53.2203 23.4249 53.0138 23.2554 52.861 23.0261C52.7106 22.7969 52.6366 22.5104 52.6389 22.1666V16.7874ZM58.6637 23.6063V16.2717H63.3624V17.3855H59.9924V19.3767H63.0401V20.4905H59.9924V23.6063H58.6637ZM66.5113 23.7138C65.9741 23.7138 65.5086 23.5956 65.1146 23.3592C64.7207 23.1228 64.415 22.7922 64.1978 22.3672C63.9829 21.9422 63.8755 21.4456 63.8755 20.8773C63.8755 20.3091 63.9829 19.8113 64.1978 19.3839C64.415 18.9565 64.7207 18.6247 65.1146 18.3883C65.5086 18.1519 65.9741 18.0337 66.5113 18.0337C67.0485 18.0337 67.5141 18.1519 67.9081 18.3883C68.302 18.6247 68.6064 18.9565 68.8213 19.3839C69.0386 19.8113 69.1472 20.3091 69.1472 20.8773C69.1472 21.4456 69.0386 21.9422 68.8213 22.3672C68.6064 22.7922 68.302 23.1228 67.9081 23.3592C67.5141 23.5956 67.0485 23.7138 66.5113 23.7138ZM66.5185 22.6752C66.8098 22.6752 67.0533 22.5952 67.2491 22.4352C67.4449 22.2729 67.5905 22.0556 67.686 21.7834C67.7839 21.5112 67.8329 21.208 67.8329 20.8737C67.8329 20.5371 67.7839 20.2327 67.686 19.9605C67.5905 19.6859 67.4449 19.4675 67.2491 19.3051C67.0533 19.1428 66.8098 19.0616 66.5185 19.0616C66.22 19.0616 65.9717 19.1428 65.7736 19.3051C65.5778 19.4675 65.431 19.6859 65.3331 19.9605C65.2376 20.2327 65.1898 20.5371 65.1898 20.8737C65.1898 21.208 65.2376 21.5112 65.3331 21.7834C65.431 22.0556 65.5778 22.2729 65.7736 22.4352C65.9717 22.5952 66.22 22.6752 66.5185 22.6752ZM70.2476 23.6063V18.1054H71.5046V19.0222H71.5619C71.6622 18.7046 71.8341 18.4599 72.0777 18.288C72.3236 18.1137 72.6041 18.0266 72.9193 18.0266C72.9909 18.0266 73.0709 18.0301 73.1592 18.0373C73.25 18.0421 73.3252 18.0504 73.3849 18.0624V19.255C73.3299 19.2359 73.2428 19.2192 73.1234 19.2048C73.0064 19.1881 72.893 19.1798 72.7832 19.1798C72.5468 19.1798 72.3343 19.2311 72.1457 19.3338C71.9595 19.434 71.8126 19.5737 71.7052 19.7528C71.5978 19.9318 71.544 20.1384 71.544 20.3724V23.6063H70.2476ZM74.2462 23.6063V18.1054H75.4853V19.0401H75.5498C75.6644 18.7249 75.8542 18.479 76.1192 18.3023C76.3842 18.1233 76.7006 18.0337 77.0683 18.0337C77.4407 18.0337 77.7547 18.1245 78.0102 18.3059C78.268 18.485 78.4495 18.7297 78.5545 19.0401H78.6118C78.7336 18.7345 78.9389 18.4909 79.2278 18.3095C79.5191 18.1257 79.8641 18.0337 80.2629 18.0337C80.769 18.0337 81.1821 18.1937 81.502 18.5136C81.8219 18.8336 81.9819 19.3003 81.9819 19.9139V23.6063H80.6819V20.1145C80.6819 19.7731 80.5911 19.5236 80.4097 19.366C80.2282 19.206 80.0062 19.126 79.7436 19.126C79.4308 19.126 79.1861 19.2239 79.0094 19.4197C78.8351 19.6131 78.7479 19.865 78.7479 20.1754V23.6063H77.4766V20.0608C77.4766 19.7767 77.3906 19.5498 77.2187 19.3803C77.0492 19.2108 76.8271 19.126 76.5526 19.126C76.3663 19.126 76.1968 19.1738 76.044 19.2693C75.8912 19.3624 75.7694 19.4949 75.6787 19.6668C75.588 19.8363 75.5426 20.0345 75.5426 20.2613V23.6063H74.2462Z" fill="#2C3345"/>
        <rect y="39.7101" width="237" height="0.31516" fill="#D7D8E1"/>
        <path d="M228.651 14.1301C231.843 14.1301 234.431 11.5421 234.431 8.34958C234.431 5.1571 231.843 2.56909 228.651 2.56909C225.458 2.56909 222.87 5.1571 222.87 8.34958C222.87 11.5421 225.458 14.1301 228.651 14.1301Z" fill="#EDEEF5"/>
        <path fill-rule="evenodd" clip-rule="evenodd" d="M231.252 10.6386L229.084 8.45414L231.252 6.26968C231.371 6.14909 231.371 5.95336 231.252 5.83278C231.132 5.7122 230.938 5.7122 230.818 5.83278L228.65 8.01725L226.483 5.83278C226.363 5.7122 226.169 5.7122 226.049 5.83278C225.929 5.95336 225.929 6.14909 226.049 6.26968L228.217 8.45414L226.049 10.6386C225.929 10.7592 225.929 10.9549 226.049 11.0755C226.169 11.1961 226.363 11.1961 226.483 11.0755L228.65 8.89103L230.818 11.0755C230.938 11.1961 231.132 11.1961 231.252 11.0755C231.371 10.9549 231.371 10.7592 231.252 10.6386Z" fill="#8586A6"/>
    </g>
    <defs>
        <clipPath id="clip0_19_2">
            <rect width="237" height="166.35" rx="1.28455" fill="white"/>
        </clipPath>
    </defs>
</svg>
